<?xml version="1.0" encoding="utf-8"?>
<!-- Generator: Adobe Illustrator 24.3.0, SVG Export Plug-In . SVG Version: 6.00 Build 0)  -->
<svg version="1.1" id="_x32_" xmlns="http://www.w3.org/2000/svg" xmlns:xlink="http://www.w3.org/1999/xlink" x="0px" y="0px"
	 viewBox="0 0 512 512" style="enable-background:new 0 0 512 512;" xml:space="preserve">
<style type="text/css">
	.st0{fill:#FF0000;}
</style>
<g>
	<path class="st0" d="M437,75C390.8,28.7,326.6,0,256,0C185.4,0,121.2,28.7,75,75C28.7,121.2,0,185.4,0,256
		c0,70.6,28.7,134.8,75,181c46.2,46.3,110.4,75,181,75c70.6,0,134.8-28.7,181-75c46.3-46.2,75-110.4,75-181
		C512,185.4,483.3,121.2,437,75z M399.5,112.5c36.8,36.8,59.4,87.4,59.4,143.5c0,56.1-22.7,106.7-59.4,143.5
		c-36.8,36.8-87.4,59.4-143.5,59.4c-56.1,0-106.7-22.7-143.5-59.4C75.8,362.7,53.1,312.1,53.1,256c0-56.1,22.7-106.7,59.4-143.5
		c36.8-36.8,87.4-59.4,143.5-59.4C312.1,53.1,362.7,75.8,399.5,112.5z"/>
	<path class="st0" d="M246.7,303.6c0.3,2.1,1.3,4.1,3.1,6c1.7,1.9,3.8,2.9,6.2,2.9c5.6,0,8.7-2.9,9.3-8.9L284,160.4
		c0.3-2.5,0.5-6.1,0.5-10.7c0-7.2-2.5-13.7-7.4-19.6c-4.9-5.9-11.9-8.8-21-8.8c-9.4,0-16.5,3-21.3,9.1c-4.8,5.9-7.2,12.4-7.2,19.4
		c0,4.3,0.2,7.9,0.5,10.7L246.7,303.6z"/>
	<path class="st0" d="M256,390.8c8.1,0,15-2.8,20.5-8.4c5.6-5.6,8.4-12.4,8.4-20.5c0-8.1-2.8-15-8.4-20.6
		c-5.4-5.4-12.3-8.1-20.5-8.1c-8.1,0-15,2.8-20.6,8.4c-5.6,5.6-8.4,12.3-8.4,20.3c0,7.6,2.8,14.4,8.4,20.3
		C241,387.9,247.9,390.8,256,390.8z"/>
</g>
</svg>
