<?xml version="1.0" encoding="utf-8"?>
<!-- Generator: Adobe Illustrator 24.3.0, SVG Export Plug-In . SVG Version: 6.00 Build 0)  -->
<svg version="1.1" id="レイヤー_1" xmlns="http://www.w3.org/2000/svg" xmlns:xlink="http://www.w3.org/1999/xlink" x="0px"
	 y="0px" viewBox="0 0 343 251.4" style="enable-background:new 0 0 343 251.4;" xml:space="preserve">
<style type="text/css">
	.st0{fill:#51A400;}
</style>
<g>
	<path class="st0" d="M22.1,0c99.5,0,199.1,0,298.8,0c0,55.8,0,111.4,0,167.3c-99.5,0-199.1,0-298.8,0C22.1,111.7,22.1,55.9,22.1,0z
		 M310.8,10.2c-93,0-185.8,0-278.6,0c0,49.2,0,98.1,0,147.2c92.9,0,185.7,0,278.6,0C310.8,108.3,310.8,59.3,310.8,10.2z"/>
	<path class="st0" d="M342.6,251.4c-114.2,0-228.1,0-342.3,0c0.9-3,1.7-5.9,2.5-8.7c6.6-22.2,13.1-44.4,19.6-66.6
		c0.5-1.9,1.3-2.5,3.3-2.5c97.2,0.1,194.4,0.1,291.6,0c1.5,0,2.6,0.1,3.1,2c7.3,24.9,14.6,49.8,22,74.6
		C342.5,250.6,342.5,250.9,342.6,251.4z M13.9,241.2c0.7,0.1,1,0.1,1.4,0.1c37,0,73.9,0,110.8,0c1.5,0,2-0.6,2.5-1.9
		c2.9-8,5.9-16,8.8-24.1c0.6-1.7,1.4-2.1,3.1-2.1c20.1,0.1,40.1,0.1,60.2,0c1.9,0,2.6,0.7,3.2,2.3c2.8,7.8,5.8,15.6,8.5,23.4
		c0.6,1.9,1.5,2.4,3.4,2.4c36.9-0.1,73.7-0.1,110.6-0.1c0.8,0,1.6,0,2.6,0c-0.2-0.8-0.2-1.2-0.3-1.6c-5.4-18.1-10.7-36.3-16-54.4
		c-0.5-1.8-1.6-1.6-2.9-1.6c-92.2,0-184.4,0-276.6,0c-1.7,0-2.5,0.5-3,2.2c-3.5,12.1-7.1,24.2-10.6,36.3
		C17.6,228.4,15.8,234.7,13.9,241.2z M202.1,240.4c-1.9-5.1-3.7-9.8-5.3-14.6c-0.6-1.9-1.6-2.4-3.4-2.4c-13.8,0.1-27.6,0-41.5,0
		c-6.6,0-6.6,0-8.9,6.2c-1.3,3.6-2.6,7.1-3.9,10.8C160.2,240.4,181,240.4,202.1,240.4z"/>
	<path class="st0" d="M41.7,16c86.7,0,173.1,0,259.7,0c0,45,0,90,0,135.2c-86.5,0-173.1,0-259.7,0C41.7,106.2,41.7,61.2,41.7,16z
		 M51.8,141.2c79.9,0,159.6,0,239.4,0c0-38.4,0-76.7,0-115.1c-79.9,0-159.6,0-239.4,0C51.8,64.5,51.8,102.8,51.8,141.2z"/>
	<path class="st0" d="M275.8,232.3c-2.4,0-4.8,0-7.2,0c-2.4,0-3.8-1.1-3.6-2.9c0.2-2.1,1.6-2.8,3.5-2.8c5,0,10.1,0,15.1,0
		c1.9,0,3.3,0.9,3.2,3c-0.1,2-1.5,2.7-3.3,2.7C280.9,232.3,278.4,232.3,275.8,232.3z"/>
	<path class="st0" d="M125.4,202.3c2.6,0,5.1,0,7.7,0c1.8,0,3,0.9,3,2.6c0,1.9-1.2,2.9-3.1,2.9c-5.2,0-10.4,0-15.6,0
		c-1.9,0-3.2-0.9-3.2-2.8c0-1.9,1.3-2.7,3.2-2.7C120.1,202.3,122.7,202.3,125.4,202.3z"/>
	<path class="st0" d="M230.8,190.1c2.6,0,5.1,0,7.6,0c1.8,0,3,0.7,3,2.6c0.1,2-1.1,2.9-3,2.9c-5.3,0-10.5,0-15.8,0
		c-1.8,0-3-0.9-3-2.7c0-1.9,1.2-2.8,3.1-2.8C225.6,190.1,228.2,190.1,230.8,190.1z"/>
	<path class="st0" d="M79.9,190.1c2.6,0,5.3,0,7.9,0c1.8,0,2.9,0.9,2.9,2.7c0,1.8-1.1,2.8-2.9,2.8c-5.3,0-10.7,0-16,0
		c-1.8,0-2.9-1-2.9-2.8c0.1-1.8,1.2-2.7,3-2.7C74.7,190.1,77.3,190.1,79.9,190.1z"/>
	<path class="st0" d="M170.2,195.6c-2.6,0-5.1,0-7.7,0c-1.9,0-3.1-0.9-3-2.9c0.1-1.8,1.1-2.6,3-2.6c5.3,0,10.5,0,15.8,0
		c1.8,0,2.9,0.9,2.9,2.7c0,1.8-1.1,2.7-2.9,2.8C175.6,195.6,172.9,195.6,170.2,195.6z"/>
	<path class="st0" d="M94.7,207.8c-2.4,0-4.8,0-7.2,0c-1.9,0-3.3-0.7-3.3-2.8c0-2,1.3-2.7,3.2-2.7c5.1,0,10.2,0,15.3,0
		c1.9,0,3.2,0.7,3.2,2.7c0,2.1-1.4,2.9-3.3,2.9C99.9,207.8,97.3,207.8,94.7,207.8z"/>
	<path class="st0" d="M155.5,202.3c2.6,0,5.1,0,7.6,0c1.8,0,3,0.7,3,2.6c0,1.9-1.1,2.9-3,2.9c-5.3,0-10.5,0-15.8,0
		c-1.8,0-2.9-1-2.9-2.8c0-1.8,1.1-2.7,2.9-2.7C150.1,202.3,152.8,202.3,155.5,202.3z"/>
	<path class="st0" d="M246,202.3c2.5,0,4.9,0,7.4,0c1.9,0,3.2,0.7,3.2,2.7c0,2-1.2,2.9-3.1,2.9c-5.2,0-10.4,0-15.6,0
		c-1.9,0-3.1-0.9-3.1-2.8c0-2,1.3-2.7,3.2-2.7C240.7,202.3,243.4,202.3,246,202.3z"/>
	<path class="st0" d="M79.9,214.5c2.6,0,5.1,0,7.7,0c1.9,0,3.2,0.7,3.2,2.7c0.1,2-1.3,2.8-3.1,2.9c-5.2,0-10.4,0-15.6,0
		c-1.8,0-3.2-0.9-3.1-2.9s1.4-2.7,3.2-2.7C74.8,214.5,77.4,214.5,79.9,214.5z"/>
	<path class="st0" d="M230.5,220c-2.5,0-4.9,0-7.4,0c-1.9,0-3.4-0.8-3.3-2.9c0.1-1.9,1.4-2.7,3.3-2.7c5.1,0,10.2,0,15.3,0
		c1.9,0,3.1,0.8,3.2,2.8c0,2-1.3,2.8-3.1,2.8C235.8,220.1,233.1,220,230.5,220z"/>
	<path class="st0" d="M95,232.3c-2.6,0-5.1,0-7.7,0c-1.8,0-3.2-0.8-3.2-2.8c0-2,1.3-2.9,3.1-2.9c5.2-0.1,10.4-0.1,15.6,0
		c1.8,0,3.2,0.9,3.1,2.9s-1.4,2.7-3.2,2.8C100.1,232.3,97.6,232.3,95,232.3z"/>
	<path class="st0" d="M245.6,232.3c-2.5,0-4.9,0-7.4,0c-2,0-3.3-0.8-3.3-2.9c0-2,1.4-2.7,3.2-2.7c5.1,0,10.2,0,15.3,0
		c1.8,0,3.2,0.8,3.2,2.8c0,2-1.3,2.8-3.1,2.8C250.9,232.3,248.2,232.3,245.6,232.3z"/>
	<path class="st0" d="M49.6,195.6c-2.5,0-5,0-7.4,0c-1.8,0-3.2-0.8-3.2-2.7c0-2.1,1.3-2.8,3.3-2.8c5,0.1,10,0.1,15.1,0
		c2,0,3.4,0.7,3.4,2.8c0,1.9-1.4,2.7-3.2,2.7C54.8,195.6,52.2,195.6,49.6,195.6z"/>
	<path class="st0" d="M200.6,190.1c2.6,0,5.3,0,7.9,0c1.9,0,2.9,1,2.9,2.8c0,1.7-1.1,2.7-2.8,2.7c-5.4,0.1-10.9,0.1-16.3,0
		c-1.8,0-2.9-1.1-2.8-2.9c0.1-1.6,1.2-2.6,2.9-2.6C195.2,190.1,197.9,190.1,200.6,190.1z"/>
	<path class="st0" d="M64.9,207.8c-2.5,0-5.1,0-7.7,0c-1.9,0-3.1-0.7-3.2-2.7c0-2,1.2-2.8,3.1-2.8c5.2,0,10.4,0,15.5,0
		c1.9,0,3.1,0.8,3.1,2.8c-0.1,2-1.3,2.7-3.2,2.7C70,207.8,67.4,207.8,64.9,207.8z"/>
	<path class="st0" d="M185.6,202.3c2.6,0,5.1,0,7.6,0c1.8,0,3,0.8,3,2.6c0.1,1.9-1.1,2.9-3,2.9c-5.3,0-10.5,0-15.8,0
		c-1.8,0-2.9-0.9-2.9-2.8c0-1.8,1.1-2.7,2.9-2.8C180.2,202.3,182.9,202.3,185.6,202.3z"/>
	<path class="st0" d="M276,207.8c-2.5,0-5.1,0-7.7,0c-2,0-3.4-0.8-3.4-2.8c0-1.9,1.4-2.7,3.2-2.7c5.1,0,10.2,0,15.3,0
		c1.9,0,3.2,0.7,3.2,2.7c0,2.1-1.4,2.9-3.3,2.9C281,207.8,278.5,207.8,276,207.8z"/>
	<path class="st0" d="M260.8,190.1c2.6,0,5.3,0,7.9,0c1.8,0,3,0.8,3,2.6c0.1,1.9-1.1,2.9-3,2.9c-5.2,0-10.4,0-15.6,0
		c-1.8,0-3.2-0.7-3.1-2.8c0-2.2,1.4-2.8,3.4-2.8C255.8,190.1,258.3,190.1,260.8,190.1z"/>
	<path class="st0" d="M49.8,214.4c2.5,0,5.1,0,7.7,0c1.9,0,3.2,0.8,3.2,2.7c0,1.9-1.2,2.9-3.1,2.9c-5.2,0-10.4,0-15.6,0
		c-1.9,0-3.2-0.9-3.1-2.9c0-1.9,1.4-2.7,3.2-2.7C44.7,214.5,47.2,214.4,49.8,214.4z"/>
	<path class="st0" d="M109.9,195.6c-2.5,0-4.9,0-7.4,0c-1.9,0-3.3-0.8-3.3-2.9c0.1-2,1.4-2.6,3.3-2.6c5.1,0,10.2,0,15.3,0
		c1.9,0,3.1,0.7,3.1,2.8c0,2.1-1.3,2.7-3.1,2.8C115.2,195.6,112.5,195.6,109.9,195.6z"/>
	<path class="st0" d="M215.7,202.3c2.6,0,5.1,0,7.6,0c1.9,0,3.2,0.7,3.1,2.7c0,2-1.3,2.8-3.2,2.8c-5.2,0-10.4,0-15.5,0
		c-1.9,0-3-0.9-3-2.9c0-1.9,1.3-2.6,3-2.6C210.4,202.3,213.1,202.3,215.7,202.3z"/>
	<path class="st0" d="M110.3,214.4c2.5,0,4.9,0,7.4,0c1.8,0,3.2,0.6,3.2,2.7c0.1,2.2-1.3,2.9-3.3,2.9c-5.1,0-10.2,0-15.3,0
		c-1.8,0-3.2-0.8-3.2-2.8c0-2,1.3-2.8,3.2-2.8C105,214.4,107.6,214.5,110.3,214.4z"/>
	<path class="st0" d="M260.8,214.5c2.6,0,5.3,0,7.9,0c1.8,0,3,0.8,3.1,2.6c0.1,2-1.1,2.9-3,2.9c-5.3,0-10.5,0.1-15.8,0
		c-1.7,0-2.9-0.9-2.9-2.8c0-2,1.3-2.8,3.1-2.8C255.6,214.4,258.2,214.5,260.8,214.5z"/>
	<path class="st0" d="M291.2,214.4c2.5,0,4.9,0,7.4,0c1.9,0,3.1,0.7,3.2,2.7c0,2-1.3,2.8-3.1,2.8c-5.2,0-10.4,0-15.5,0
		c-1.8,0-3.1-0.8-3-2.9c0.1-2,1.4-2.7,3.2-2.7C286,214.4,288.6,214.4,291.2,214.4z"/>
	<path class="st0" d="M64.7,232.3c-2.5,0-4.9,0-7.4,0c-1.8,0-3.2-0.7-3.3-2.7c-0.1-2.1,1.3-3,3.2-3c5,0,10,0,15.1,0
		c1.9,0,3.4,0.6,3.4,2.8c0,2.1-1.4,2.9-3.3,2.9C69.8,232.3,67.3,232.3,64.7,232.3z"/>
	<path class="st0" d="M140.3,190.1c2.6,0,5.3,0,7.9,0c1.8,0,2.9,0.9,3,2.7c0,1.9-1.1,2.8-2.9,2.8c-5.3,0-10.7,0-16,0
		c-1.8,0-2.9-0.9-2.8-2.8s1.2-2.7,3-2.6C135,190.1,137.6,190.1,140.3,190.1z"/>
	<path class="st0" d="M290.8,195.6c-2.5,0-4.9,0-7.4,0c-1.8,0-3.2-0.6-3.2-2.7c0-2.1,1.3-2.8,3.3-2.8c5,0,10,0,15.1,0
		c2,0,3.3,0.7,3.3,2.8c0,2-1.4,2.7-3.2,2.7C296,195.6,293.4,195.6,290.8,195.6z"/>
	<path class="st0" d="M274.3,39.6c0,2.3,0,4.2,0,6.4c-67.8,0-135.4,0-203.3,0c0-2.1,0-4.2,0-6.4C138.7,39.6,206.4,39.6,274.3,39.6z"
		/>
	<path class="st0" d="M70.9,86.9c0-2.2,0-4.3,0-6.5c62.7,0,125.4,0,188.2,0c0,2.1,0,4.3,0,6.5C196.4,86.9,133.8,86.9,70.9,86.9z"/>
	<path class="st0" d="M259.2,100.9c0,2.3,0,4.3,0,6.5c-62.7,0-125.3,0-188.1,0c0-2.1,0-4.2,0-6.5
		C133.7,100.9,196.4,100.9,259.2,100.9z"/>
	<path class="st0" d="M70.9,127.7c0-2.2,0-4.3,0-6.5c62.7,0,125.4,0,188.2,0c0,2.1,0,4.3,0,6.5C196.4,127.7,133.8,127.7,70.9,127.7z
		"/>
	<path class="st0" d="M71,66.6c0-2.2,0-4.3,0-6.5c44.4,0,88.7,0,133.1,0c0,2.1,0,4.2,0,6.5C159.7,66.6,115.5,66.6,71,66.6z"/>
</g>
</svg>
