<svg xmlns="http://www.w3.org/2000/svg" width="475.809" height="160.287" viewBox="0 0 475.809 160.287">
  <g id="logo" transform="translate(-0.883 -10.34)">
    <g id="XMLID_95_" transform="translate(-89 10)">
      <path id="XMLID_96_" d="M328.6,45.79H307.68s-4.72,0-4.72-4.67V26.08h-4.25v2.05c0,5.66-.26,14.36-7.65,19.4l-3.41-4.35c5.87-3.09,6.34-9.59,6.34-14v-3.1H289.9V21.57h21.91v4.51h-4.14V39.24c0,1.89,2.1,1.84,2.1,1.84h16.25c1.83,0,3.3-.21,3.77-8.02l4.98,3.14C333.26,44.48,332.11,45.79,328.6,45.79Zm.26-33.91V6.84H293.63v4.82h16.72v4.51h-18.3V13.08H288.9V2.39h44.66v9.49Zm-1.42,7.28V32.48c0,5.66-4.04,6.45-9.54,6.45l-1.78-4.72c4.67,0,6.76-.26,6.76-1.73V19.16H312.24V14.97h10.64V9.57h4.56v5.4h4.93v4.19ZM316.9,30.8a33.9,33.9,0,0,0-3.51-6.92l3.57-2.36a33.344,33.344,0,0,1,3.77,6.92Z" fill="#013b7d"/>
      <path id="XMLID_101_" d="M370.6,43.49a42.48,42.48,0,0,0-4.09-5.09,38.773,38.773,0,0,1-7.6,9.07l-3.83-4.04a30.873,30.873,0,0,0,7.71-8.65,46.785,46.785,0,0,0-6.55-5.4,115.34,115.34,0,0,0,2.88-16.09h-2.88V8.57h3.36c.21-2.67.31-5.4.31-8.23l5.03.1a78.466,78.466,0,0,1-.42,8.13h8.23c0,11.38-1.36,19.29-3.83,25.16,3.62,3.62,5.19,5.45,5.19,5.45Zm-6.45-30.2a75.63,75.63,0,0,1-2.41,13.73c1.21,1,2.26,1.99,3.36,3.04a50.577,50.577,0,0,0,2.62-16.78h-3.57Zm33.29,11.48a7.009,7.009,0,0,1-5.19-2.99,25.837,25.837,0,0,1-3.88-7.6H380.4v4.51c2.25-.37,4.56-.84,6.97-1.47l.11,4.46c-7.71,1.89-13.26,2.73-13.26,2.73l-1.42-4.67s1-.1,2.46-.32V1.97h1.26c3.93,0,16.25-.11,21.75-1.42l1.99,3.98a83.31,83.31,0,0,1-8.76,1,30.511,30.511,0,0,0,.68,4.72h9.7v3.93H393.6a13.523,13.523,0,0,0,2.62,4.56,1.53,1.53,0,0,0,.84.52c.58,0,.89-1.15,1.1-4.46l4.35,2.62C402.06,22.78,399.8,24.77,397.44,24.77Zm-3.09,22.75V45.95H380.72v1.57h-5.14V25.5h23.91V47.52ZM386.38,5.74c-3.4.26-5.97.26-5.97.26v4.25h6.66C386.8,9.15,386.54,7.11,386.38,5.74Zm7.97,23.96H380.72v3.88h13.63Zm0,7.81H380.72v4.25h13.63Z" fill="#013b7d"/>
      <path id="XMLID_109_" d="M458.44,37.2V47.53H453.3V37.2H441.14c-.84,5.14-5.24,9.12-12.79,10.33l-3.41-4.14c7.5-.84,10.22-3.25,10.96-6.19H423.37V33h13.32V29.33h5.14V33h11.48V29.7c-3.2,0-4.61-1.99-4.61-5.56V15.23H438a18.25,18.25,0,0,1-2.31,2.52h10.96v2.46c-1.05,2.88-7.03,9.59-19.76,12l-2.46-4.04a30.778,30.778,0,0,0,8.33-1.89,48.42,48.42,0,0,0-3.77-3.3c-.58.37-1.21.68-1.84,1l-3.2-3.56a21.254,21.254,0,0,0,8.7-5.19h-8.18V11.56h44.14v3.67H453.62v4.19a33.329,33.329,0,0,0,10.69-3.3l2.99,3.09a47.147,47.147,0,0,1-13.68,3.72c0,2.15.52,2.78,2.2,2.78h5.03c2.67,0,3.36-.58,3.36-4.3l4.14,2.31c-.89,5.98-3.2,5.98-6.29,5.98h-3.62V33h11.69v4.19H458.44ZM457.13,7.79V10.1h-5.09V7.79H441.08V10.1h-5.09V7.79H424.2V3.59h11.79V.34h5.09V3.59h10.96V.34h5.09V3.59h11.74V7.78H457.13ZM432.39,21a38.584,38.584,0,0,1,4.19,3.56A13.53,13.53,0,0,0,441.3,21Z" fill="#013b7d"/>
      <path id="XMLID_113_" d="M534.97,25.45a60.542,60.542,0,0,1-7.34-4.14v2.31H503.04v-2.2a49.528,49.528,0,0,1-9.85,5.66l-2.57-4.82a29.28,29.28,0,0,0,7.5-2.94,17.273,17.273,0,0,0-3.98-2.41l3.25-2.88a23,23,0,0,1,4.56,2.78,17.039,17.039,0,0,0,2.83-1.99,15.219,15.219,0,0,0-4.87-2.62L502.95,9a29.07,29.07,0,0,1,4.93,2.99,16.119,16.119,0,0,0,3.25-4.4h-8.86a41.474,41.474,0,0,1-8.44,6.97l-3.2-4.35A32.607,32.607,0,0,0,502.37.35l4.98,1.26a16.87,16.87,0,0,1-1.15,1.63H516a27.68,27.68,0,0,0,8.65,10.07A25.074,25.074,0,0,0,530,7.54h-8.44V3.24h14.15V7.8s-4.25,6.13-7.18,8.44a44.861,44.861,0,0,0,9.28,4.3ZM494.03,46.16l-3.2-4.67a32.416,32.416,0,0,0,11.11-7.91l3.56,3.51A39.734,39.734,0,0,1,494.03,46.16Zm23.64-13.37v8.33c0,5.82-4.3,6.34-9.75,6.34l-2.1-4.98h1.05c4.4,0,5.35-.05,5.35-1.36V32.79H491.88V28.07h44.66v4.72Zm-2.83-22.75a33.593,33.593,0,0,1-8.18,9.07h17.56A39.976,39.976,0,0,1,514.84,10.04Zm19.77,36.07a47.506,47.506,0,0,1-11.48-9.02l3.51-3.51a32.739,32.739,0,0,0,11.11,7.55Z" fill="#013b7d"/>
    </g>
    <g id="XMLID_641_">
      <path id="XMLID_655_" d="M113.975,130.54c2.182-2.5,4.307-5.006,6.334-7.464,11.884-14.412,18.691-28.111,20.8-41.859,1.977-12.9-1.335-25.491-9.095-34.537-7.125-8.3-17.463-12.873-29.114-12.873S80.914,38.376,73.789,46.68a37.794,37.794,0,0,0-2.507,3.269,39.26,39.26,0,0,0-2.507-3.269C61.643,38.369,51.3,33.8,39.655,33.8S17.666,38.369,10.541,46.673C2.78,55.718-.538,68.3,1.446,81.21c2.111,13.755,8.911,27.447,20.8,41.859,2.041,2.471,4.166,4.978,6.334,7.464-7.774,8.283-16.34,16.756-26.141,25.873l-1.08,1,11.185,12.025,1.08-1c9.7-9.024,18.232-17.448,26.028-25.71,7.817,8.276,16.34,16.693,26.035,25.71a8.219,8.219,0,0,0,11.185,0c9.7-9.024,18.225-17.448,26.028-25.71,7.8,8.262,16.333,16.686,26.035,25.71l1.08,1L141.2,157.408l-1.08-1C130.322,147.3,121.756,138.83,113.975,130.54ZM86.245,57.364c4.011-4.675,9.773-7.146,16.651-7.146s12.64,2.471,16.651,7.146c4.639,5.4,6.581,13.183,5.324,21.353-1.652,10.747-7.287,21.841-17.237,33.908-1.518,1.843-3.107,3.728-4.738,5.621-1.617-1.871-3.206-3.757-4.738-5.621-9.949-12.068-15.591-23.161-17.237-33.908C79.664,70.554,81.606,62.772,86.245,57.364Zm5.578,73.176c-6.27,6.673-13.014,13.438-20.548,20.619-7.541-7.174-14.285-13.939-20.548-20.619,2.161-2.479,4.286-4.985,6.334-7.464A110.589,110.589,0,0,0,71.275,101.6a110.378,110.378,0,0,0,14.214,21.48C87.523,125.533,89.648,128.04,91.823,130.54ZM23,57.364c4.011-4.675,9.773-7.146,16.651-7.146s12.64,2.471,16.658,7.146c4.639,5.4,6.581,13.183,5.324,21.346-1.652,10.747-7.287,21.841-17.237,33.908-1.532,1.857-3.121,3.742-4.738,5.621-1.631-1.892-3.22-3.778-4.738-5.621-9.956-12.061-15.591-23.154-17.244-33.9C16.423,70.554,18.358,62.772,23,57.364Z" fill="#013b7d"/>
      <g id="XMLID_642_" transform="translate(-28)">
        <g id="XMLID_652_" transform="translate(425.915 86.731)">
          <path id="XMLID_654_" d="M558.668,87.98H503.64a3.116,3.116,0,0,0-3.12,3.12v8.821a3.116,3.116,0,0,0,3.12,3.12h51.783c4.219,0,6.107,1.925,6.107,6.24v36.826c0,4.315-1.881,6.24-6.107,6.24H503.64a3.116,3.116,0,0,0-3.12,3.12v8.821a3.116,3.116,0,0,0,3.12,3.12h55.028c15.223,0,20.629-10.894,20.629-20.224V108.2C579.3,98.874,573.891,87.98,558.668,87.98Z" transform="translate(-500.52 -87.98)" fill="#013b7d"/>
        </g>
        <g id="XMLID_647_" transform="translate(216.26 85.72)">
          <path id="XMLID_650_" d="M317.923,157.486l-51.791-51.444a20.858,20.858,0,0,0-13.276-6.321h-.015c-5.532-.3-10.923,2.014-15.592,6.7l-20.083,20.187a3.117,3.117,0,0,0,.052,4.447L225,138.538a3.117,3.117,0,0,0,4.374-.052l17.8-17.893c1.984-2,3.4-2.227,4.241-2.227l.214.007a6.54,6.54,0,0,1,4.263,2.286l49.5,49.416a3.127,3.127,0,0,0,2.205.915h.007a3.1,3.1,0,0,0,2.205-.922l8.12-8.172a3.133,3.133,0,0,0,.907-2.205A3.054,3.054,0,0,0,317.923,157.486Z" transform="translate(-216.26 -90.044)" fill="#013b7d"/>
          <path id="XMLID_649_" d="M313.941,86.61H305.12A3.116,3.116,0,0,0,302,89.73v16.064a3.116,3.116,0,0,0,3.12,3.12h8.821a3.116,3.116,0,0,0,3.12-3.12V89.73A3.121,3.121,0,0,0,313.941,86.61Z" transform="translate(-238.763 -86.61)" fill="#013b7d"/>
          <path id="XMLID_648_" d="M340.4,86.61H331.58a3.116,3.116,0,0,0-3.12,3.12v16.064a3.116,3.116,0,0,0,3.12,3.12H340.4a3.116,3.116,0,0,0,3.12-3.12V89.73A3.116,3.116,0,0,0,340.4,86.61Z" transform="translate(-245.707 -86.61)" fill="#013b7d"/>
        </g>
        <g id="XMLID_643_" transform="translate(330.27 83.22)">
          <path id="XMLID_646_" d="M466.7,130.224h-8.821a3.116,3.116,0,0,0-3.12,3.12V145.58c0,4.219-1.925,6.107-6.24,6.107h-7.73V86.34a3.116,3.116,0,0,0-3.12-3.12H426.15a3.116,3.116,0,0,0-3.12,3.12v79.987a3.116,3.116,0,0,0,3.12,3.12H449.6c9.33,0,20.224-5.4,20.224-20.629V133.344A3.127,3.127,0,0,0,466.7,130.224Z" transform="translate(-384.537 -83.22)" fill="#013b7d"/>
          <path id="XMLID_644_" d="M394.773,83.22h-11.52a3.116,3.116,0,0,0-3.12,3.12v52.292c0,5.089-.679,8.887-1.977,11.225a35.17,35.17,0,0,1-6.4,7.914,3.125,3.125,0,0,0-.015,4.4l7.442,7.523a3.141,3.141,0,0,0,2.205.929h.007a3.1,3.1,0,0,0,2.205-.915c3.673-3.666,7.833-7.825,10.783-12.826,2.913-5.06,3.5-10.635,3.5-17.443V86.34A3.11,3.11,0,0,0,394.773,83.22Z" transform="translate(-370.84 -83.22)" fill="#013b7d"/>
        </g>
      </g>
    </g>
  </g>
</svg>
